<?xml version="1.0" standalone="no"?>
<!DOCTYPE svg PUBLIC "-//W3C//DTD SVG 20010904//EN"
 "http://www.w3.org/TR/2001/REC-SVG-20010904/DTD/svg10.dtd">
<svg version="1.0" xmlns="http://www.w3.org/2000/svg"
 width="626.000000pt" height="490.000000pt" viewBox="0 0 626.000000 490.000000"
 preserveAspectRatio="xMidYMid meet">

<g transform="translate(0.000000,490.000000) scale(0.100000,-0.100000)"
fill="#000000" stroke="none">
<path d="M210 4705 l0 -45 -40 0 -40 0 0 -2217 0 -2218 37 0 c37 0 38 -1 41
-42 l3 -43 2920 0 2919 0 0 45 0 45 40 0 40 0 0 2215 0 2215 -40 0 -40 0 0 45
0 45 -2920 0 -2920 0 0 -45z m2880 -300 l0 -85 -90 0 -90 0 0 -45 0 -45 220 0
220 0 0 45 0 45 -90 0 -90 0 0 85 0 85 220 0 220 0 0 -305 0 -305 1045 0 1045
0 0 45 0 45 -830 0 -830 0 0 260 0 260 915 0 915 0 0 -2045 0 -2045 -1350 0
-1350 0 0 85 0 85 90 0 90 0 0 45 0 45 -220 0 -220 0 0 -45 0 -45 90 0 90 0 0
-85 0 -85 -1350 0 -1350 0 0 2045 0 2045 1350 0 1350 0 0 -85z m870 -107 c0
-106 -3 -223 -7 -260 l-6 -68 -39 0 -40 0 4 43 3 42 -48 3 -47 3 0 -45 0 -46
-40 0 -40 0 0 260 0 260 130 0 130 0 0 -192z"/>
<path d="M2822 4188 c3 -43 3 -43 46 -46 42 -3 42 -3 42 -42 l0 -39 88 -3 87
-3 3 -87 3 -88 -91 0 -90 0 0 -39 c0 -40 0 -40 -42 -43 -43 -3 -43 -3 -46 -45
l-3 -43 45 0 46 0 0 -45 0 -45 90 0 90 0 0 -85 0 -84 -87 -3 -88 -3 -3 -42
c-3 -42 -3 -42 -45 -45 -42 -3 -42 -3 -42 -43 0 -40 0 -40 42 -43 42 -3 42 -3
45 -45 l3 -42 88 -3 87 -3 0 -84 0 -85 -90 0 -90 0 0 -45 0 -45 -45 0 -45 0 0
-40 0 -40 45 0 45 0 0 -45 0 -45 90 0 90 0 0 -85 0 -84 -87 -3 -88 -3 -3 -42
c-3 -42 -3 -42 -45 -45 -42 -3 -42 -3 -42 -43 0 -40 0 -40 42 -43 42 -3 42 -3
45 -45 l3 -42 88 -3 87 -3 0 -84 0 -85 -90 0 -90 0 0 -45 0 -45 -46 0 -45 0 3
-42 c3 -43 3 -43 46 -46 42 -3 42 -3 42 -42 l0 -39 88 -3 87 -3 0 -85 0 -85
-87 -3 -88 -3 0 -39 c0 -39 0 -39 -42 -42 -43 -3 -43 -3 -46 -46 l-3 -42 45 0
46 0 0 -45 0 -45 90 0 90 0 0 -85 0 -85 -90 0 -90 0 0 -45 0 -45 -46 0 -45 0
3 -43 c3 -42 3 -42 46 -45 42 -3 42 -3 42 -42 l0 -39 88 -3 87 -3 0 -85 0 -85
-87 -3 -88 -3 0 -39 0 -40 220 0 220 0 0 -45 0 -45 45 0 45 0 0 39 c0 40 0 40
-42 43 -43 3 -43 3 -46 45 l-3 42 -87 3 -87 3 0 85 0 85 88 3 87 3 0 39 c0 39
0 39 43 42 42 3 42 3 45 46 l3 42 -45 0 -46 0 0 45 0 45 -90 0 -90 0 0 85 0
85 90 0 90 0 0 45 0 45 46 0 45 0 -3 43 c-3 42 -3 42 -45 45 -43 3 -43 3 -43
43 l0 39 -75 1 c-41 1 -81 2 -87 3 -9 1 -13 25 -13 86 l0 85 88 3 87 3 0 39
c0 39 0 39 43 42 42 3 42 3 45 46 l3 42 -45 0 -46 0 0 45 0 45 -90 0 -90 0 0
85 0 85 90 0 90 0 0 44 0 45 43 3 c42 3 42 3 42 43 0 40 0 40 -42 43 -42 3
-42 3 -45 45 l-3 42 -87 3 -88 3 0 84 0 85 90 0 90 0 0 45 0 45 45 0 45 0 0
40 0 40 -45 0 -45 0 0 45 0 45 -90 0 -90 0 0 85 0 84 88 3 87 3 3 42 c3 42 3
42 45 45 42 3 42 3 45 46 l3 42 -45 0 -46 0 0 45 0 45 -90 0 -90 0 0 85 0 85
90 0 90 0 0 45 0 45 46 0 45 0 -3 43 c-3 42 -3 42 -45 45 -43 3 -43 3 -43 43
l0 39 -90 0 -91 0 3 88 3 87 88 3 87 3 0 39 c0 39 0 39 43 42 42 3 42 3 45 46
l3 42 -45 0 -46 0 0 -45 0 -45 -220 0 -220 0 0 45 0 45 -46 0 -45 0 3 -42z
m528 -433 l0 -45 -220 0 -220 0 0 45 0 45 220 0 220 0 0 -45z m0 -440 l0 -45
-220 0 -220 0 0 45 0 45 220 0 220 0 0 -45z m0 -435 l0 -40 -220 0 -220 0 0
40 0 40 220 0 220 0 0 -40z m0 -435 l0 -45 -220 0 -220 0 0 45 0 45 220 0 220
0 0 -45z m0 -440 l0 -45 -220 0 -220 0 0 45 0 45 220 0 220 0 0 -45z m0 -430
l0 -45 -220 0 -220 0 0 45 0 45 220 0 220 0 0 -45z m0 -440 l0 -45 -220 0
-220 0 0 45 0 45 220 0 220 0 0 -45z"/>
<path d="M562 3928 l3 -43 1043 -3 1042 -2 0 45 0 45 -1046 0 -1045 0 3 -42z"/>
<path d="M562 3318 l3 -43 1043 -3 1042 -2 0 45 0 45 -1046 0 -1045 0 3 -42z"/>
<path d="M3610 3315 l0 -45 1043 2 1042 3 3 43 3 42 -1045 0 -1046 0 0 -45z"/>
<path d="M560 2705 l0 -45 1045 0 1045 0 0 45 0 45 -1045 0 -1045 0 0 -45z"/>
<path d="M3610 2705 l0 -45 1043 2 1042 3 3 43 3 42 -1045 0 -1046 0 0 -45z"/>
<path d="M560 2095 l0 -45 1045 0 1045 0 0 45 0 45 -1045 0 -1045 0 0 -45z"/>
<path d="M3610 2095 l0 -45 1043 2 1042 3 3 43 3 42 -1045 0 -1046 0 0 -45z"/>
<path d="M560 1485 l0 -45 1045 0 1045 0 0 45 0 45 -1045 0 -1045 0 0 -45z"/>
<path d="M3610 1485 l0 -45 1043 2 1042 3 3 43 3 42 -1045 0 -1046 0 0 -45z"/>
<path d="M562 878 l3 -43 1043 -3 1042 -2 0 45 0 45 -1046 0 -1045 0 3 -42z"/>
<path d="M3610 880 l0 -40 1035 0 c569 0 1038 -1 1043 -2 4 -2 8 16 10 40 l3
42 -1045 0 -1046 0 0 -40z"/>
<path d="M2824 741 c-2 -2 -4 -22 -4 -43 l0 -38 45 0 45 0 0 39 c0 38 -1 39
-41 43 -22 2 -42 2 -45 -1z"/>
</g>
</svg>
